<svg id="Layer_1" data-name="Layer 1" xmlns="http://www.w3.org/2000/svg" viewBox="0 0 288 288"><defs><style>.cls-1,.cls-2{fill:none;stroke-width:12.02px;}.cls-1,.cls-2,.cls-3{stroke:#004987;stroke-linecap:round;stroke-linejoin:round;}.cls-2{stroke-dasharray:0.59 35.25;}.cls-3{fill:#ffdd89;stroke-width:6.01px;}</style></defs><title>clipboard</title><path class="cls-1" d="M93,233.05l-.25-.15"/><path class="cls-2" d="M66.05,210.12a102.69,102.69,0,1,1,144.47,13.54"/><path class="cls-1" d="M196,233.69l-.26.15"/><circle class="cls-3" cx="145.06" cy="48.4" r="24.74"/><path class="cls-3" d="M127.81,86c-8.65,0-13.53,8.08-13.53,8.08L80.4,154a9.23,9.23,0,0,0,3.37,12.57h0a9.22,9.22,0,0,0,12.57-3.37l19.57-33.55V252.36a10.58,10.58,0,0,0,10.55,10.55h0A10.58,10.58,0,0,0,137,252.36V191.49a8.05,8.05,0,0,1,16.1,0v60.87a10.58,10.58,0,0,0,10.55,10.55h0a10.58,10.58,0,0,0,10.55-10.55V129.62h0l19.57,33.55a9.22,9.22,0,0,0,12.57,3.37h0A9.23,9.23,0,0,0,209.72,154L175.85,94.12S171,86,162.32,86Z"/></svg>