<svg id="Layer_1" data-name="Layer 1" xmlns="http://www.w3.org/2000/svg" viewBox="0 0 288 288"><defs><style>.cls-1{fill:#b0d5f1;}.cls-1,.cls-2{stroke:#004987;stroke-linecap:round;stroke-linejoin:round;stroke-width:6.21px;}.cls-2{fill:none;}</style></defs><title>clipboard</title><path class="cls-1" d="M139.82,113.08s-25.94,13.56-43.28,13.59c-13.82,0-19.51-8.91-19.51-8.91l40.63-17.69Z"/><path class="cls-1" d="M93.25,96.62s-26.22,13.14-45,11.15C34.56,106.31,30.34,96.1,30.34,96.1l.35.06a52,52,0,0,0,11.74.39c22.43-1.56,45-12.16,45-12.16s0,8.28,5.69,12.16Z"/><path class="cls-1" d="M93.37,96.7a11.29,11.29,0,0,0,1.73.9,21.08,21.08,0,0,0,15,0,21.09,21.09,0,0,0,5.91,8.08l.14.12s-23.7,10.54-39.07,12C59.12,119.41,53,108,53,108h.3c18.1-.36,40-11.34,40-11.34Z"/><path class="cls-1" d="M144.82,87.73s-13.08-.17-17.39-10.47-4.3-17.34-12.12-20.21-17.73,1.7-17.73,1.7S65.77,82,14.14,87.3c0,0,5.87,10.82,28.29,9.25s45-12.16,45-12.16,0,10.08,7.64,13.21a21.08,21.08,0,0,0,15,0s6,17.94,34.77,14.82Z"/><path class="cls-1" d="M149.81,113.08s25.94,13.56,43.29,13.59c13.82,0,19.51-8.91,19.51-8.91L172,100.07Z"/><path class="cls-1" d="M196.38,96.62s26.22,13.14,45,11.15c13.69-1.46,17.91-11.67,17.91-11.67l-.34.06a52.07,52.07,0,0,1-11.75.39c-22.42-1.56-45-12.16-45-12.16s0,8.28-5.69,12.16Z"/><path class="cls-1" d="M196.26,96.7a10.84,10.84,0,0,1-1.73.9,21.08,21.08,0,0,1-14.95,0,21,21,0,0,1-5.91,8.08l-.13.12s23.7,10.54,39.07,12c17.9,1.65,24.07-9.79,24.07-9.79h-.3c-18.1-.36-40-11.34-40-11.34Z"/><path class="cls-1" d="M144.82,87.73s13.08-.17,17.38-10.47,4.3-17.34,12.12-20.21,17.73,1.7,17.73,1.7S223.86,82,275.49,87.3c0,0-5.87,10.82-28.29,9.25s-45-12.16-45-12.16,0,10.08-7.65,13.21a21.08,21.08,0,0,1-14.95,0s-6,17.94-34.76,14.82Z"/><circle class="cls-1" cx="144.82" cy="54.86" r="12.69"/><path class="cls-2" d="M155.6,132.28a27.26,27.26,0,1,1-22,.19"/><path class="cls-2" d="M145.88,226.82A14.84,14.84,0,1,1,131,235.53"/><path class="cls-2" d="M145.82,226.79A21.17,21.17,0,0,1,128,192.52"/><path class="cls-2" d="M145.42,184.51a21.17,21.17,0,0,1,13.64,36.62"/><line class="cls-2" x1="144.82" y1="183.42" x2="144.82" y2="67.54"/><line class="cls-2" x1="144.82" y1="246.91" x2="144.82" y2="196.5"/><line class="cls-2" x1="144.82" y1="266.38" x2="144.82" y2="256.65"/></svg>