<svg id="Layer_1" data-name="Layer 1" xmlns="http://www.w3.org/2000/svg" viewBox="0 0 288 288"><defs><style>.cls-1{fill:#fff;stroke-width:4.56px;}.cls-1,.cls-2,.cls-4,.cls-5{stroke:#004987;stroke-linecap:round;}.cls-1,.cls-2,.cls-4{stroke-linejoin:round;}.cls-2{fill:#b0d5f1;}.cls-2,.cls-4{stroke-width:6.82px;}.cls-3{fill:#004987;}.cls-4{fill:#ffdd89;}.cls-5{fill:none;stroke-miterlimit:10;stroke-width:7.14px;}</style></defs><title>clipboard</title><rect class="cls-1" x="42.58" y="55.99" width="164.22" height="205.63"/><rect class="cls-2" x="89.64" y="37.78" width="70.75" height="31.62"/><rect class="cls-2" x="67.53" y="97.41" width="19.53" height="19.53"/><rect class="cls-2" x="67.53" y="137.97" width="19.53" height="19.53"/><rect class="cls-2" x="68.32" y="178.46" width="19.53" height="19.53"/><rect class="cls-2" x="68.32" y="218.96" width="19.53" height="19.53"/><path class="cls-3" d="M207.89,51.19H163.76V36.54a3.67,3.67,0,0,0-3.68-3.68H142V26.35a3.68,3.68,0,0,0-3.68-3.68H108.13a3.67,3.67,0,0,0-3.68,3.68v6.51H89.1a3.67,3.67,0,0,0-3.68,3.68V51.19H43.87a3.68,3.68,0,0,0-3.68,3.68V91a3.68,3.68,0,0,0,7.36,0V58.55H85.42v11.6a3.67,3.67,0,0,0,3.68,3.68h71a3.67,3.67,0,0,0,3.68-3.68V58.55h40.45V259H47.55V86.74a3.68,3.68,0,0,0-7.36,0v176a3.68,3.68,0,0,0,3.68,3.68h164a3.68,3.68,0,0,0,3.68-3.68V54.87A3.68,3.68,0,0,0,207.89,51.19ZM111.81,30h22.82v2.83H111.81ZM156.4,66.47H92.78V40.21H156.4Z"/><path class="cls-3" d="M182.88,102.6H103.53a3.68,3.68,0,0,0,0,7.36h79.35a3.68,3.68,0,1,0,0-7.36Z"/><path class="cls-3" d="M182.88,143H103.53a3.68,3.68,0,0,0,0,7.36h79.35a3.68,3.68,0,0,0,0-7.36Z"/><path class="cls-3" d="M182.88,183.36H103.53a3.68,3.68,0,1,0,0,7.36h79.35a3.68,3.68,0,1,0,0-7.36Z"/><path class="cls-3" d="M182.88,223.74H103.53a3.68,3.68,0,1,0,0,7.36h79.35a3.68,3.68,0,1,0,0-7.36Z"/><path class="cls-3" d="M88.26,92.88H67.92a3.68,3.68,0,0,0-3.68,3.68v20.85a3.68,3.68,0,0,0,3.68,3.68H88.26a3.68,3.68,0,0,0,3.68-3.68V96.56A3.68,3.68,0,0,0,88.26,92.88Zm-3.68,20.34h-13V100.75h13Z"/><path class="cls-3" d="M88.26,134.14H67.92a3.68,3.68,0,0,0-3.68,3.68v20.34a3.68,3.68,0,0,0,3.68,3.68H88.26a3.68,3.68,0,0,0,3.68-3.68V137.82A3.68,3.68,0,0,0,88.26,134.14Zm-3.68,20.34h-13v-13h13Z"/><path class="cls-3" d="M88.26,174.38H67.92a3.68,3.68,0,0,0-3.68,3.68V198.4a3.68,3.68,0,0,0,3.68,3.68H88.26a3.68,3.68,0,0,0,3.68-3.68V178.06A3.68,3.68,0,0,0,88.26,174.38Zm-3.68,20.34h-13v-13h13Z"/><path class="cls-3" d="M88.26,215.13H67.92a3.68,3.68,0,0,0-3.68,3.68v20.34a3.68,3.68,0,0,0,3.68,3.68H88.26a3.68,3.68,0,0,0,3.68-3.68V218.81A3.68,3.68,0,0,0,88.26,215.13Zm-3.68,20.34h-13v-13h13Z"/><rect class="cls-4" x="152.06" y="165.47" width="100.91" height="100.91" rx="50.46" ry="50.46"/><polyline class="cls-5" points="173.75 216.89 193.12 236.25 227.99 201.38"/></svg>