<svg xmlns="http://www.w3.org/2000/svg" viewBox="0 0 288 288"><title>Artboard 1 copy 12</title><path d="M46.62,77.94V131a32.75,32.75,0,0,0,32.75,32.75h0A32.74,32.74,0,0,0,112.11,131V77.94Z" style="fill:#ffde8a;stroke:#004988;stroke-linecap:round;stroke-linejoin:round;stroke-width:4px"/><path d="M79.37,111.13c.17.2.26.23.45.46a67.28,67.28,0,0,1,4.53,6.56c3.21,5.1,5.88,11.69,5.88,13.81a10.87,10.87,0,1,1-21.73,0c0-2.12,2.67-8.71,5.88-13.81a67.28,67.28,0,0,1,4.53-6.56C79.1,111.36,79.19,111.32,79.37,111.13Z" style="fill:#fff;stroke:#004988;stroke-linecap:round;stroke-linejoin:round;stroke-width:4px"/><path d="M112.11,44.14H45.48A18.72,18.72,0,0,0,26.76,62.86V253.78" style="fill:none;stroke:#004988;stroke-linecap:round;stroke-linejoin:round;stroke-width:4px"/><path d="M80.28,165.19v19.75A18.72,18.72,0,0,0,99,203.65h18.7" style="fill:none;stroke:#004988;stroke-linecap:round;stroke-linejoin:round;stroke-width:4px"/><line x1="79.37" y1="53.07" x2="79.37" y2="77.94" style="fill:none;stroke:#004988;stroke-linecap:round;stroke-linejoin:round;stroke-width:4px"/><line x1="112.11" y1="95.52" x2="46.62" y2="95.52" style="fill:none;stroke:#004988;stroke-linecap:round;stroke-linejoin:round;stroke-width:4px"/><rect x="70.43" y="35.21" width="17.86" height="17.86" style="fill:#fff;stroke:#004988;stroke-linecap:round;stroke-linejoin:round;stroke-width:4px"/><path d="M227.39,166.38c4.3,8.38,7.44,15.56,8.92,23.36,1.8,9.46,2.25,19.08,2.55,28.69.25,8,4.3,13.2,10.87,13.66,6.33.44,12-4.51,13-12,3-23.78,0-46.8-10.5-68.42-11.39-23.43-34.92-37.44-61.45-38.77-26.53,1.33-50.06,15.34-61.45,38.77-10.51,21.62-13.51,44.64-10.5,68.42.94,7.44,6.65,12.39,13,12,6.57-.46,10.62-5.65,10.87-13.66.31-9.61.75-19.23,2.55-28.69,1.48-7.8,4.63-15,8.92-23.36,1,5-.12,61.8-.62,80a7.23,7.23,0,0,0,7.23,7.43h61.58a6.8,6.8,0,0,0,6.8-7.11C228.32,228.73,226.38,171.45,227.39,166.38Z" style="fill:#27aae1;stroke:#004988;stroke-linecap:round;stroke-linejoin:round;stroke-width:4px"/><path d="M223,82.14C222.89,98.67,208.5,113,192,113S161.05,98.6,161,82.08c0-16.77,14.27-31,31.24-31.12C208.47,50.87,223.07,65.69,223,82.14Z" style="fill:#fff;stroke:#004988;stroke-linecap:round;stroke-linejoin:round;stroke-width:4px"/><path d="M179.06,234.9h0a6.36,6.36,0,0,1-.81.28l-.22,0c-.7.12-6.95,1.06-9.91-2-3.43-3.53-7.59-10-7.94-20.69-.3-9.23,6.14-16.06,12.25-18.5a13.14,13.14,0,0,1,6.84-1c2.17.34,5.22,1.09,6.62,3.67,1.59,2.92.44,6.83-1.78,11.8-2.64,5.93-1.75,8.62-.39,12.68.35,1.05.72,2.14,1.06,3.39C186.22,229.94,182.77,233.42,179.06,234.9Z" style="fill:#ffde8a;stroke:#004988;stroke-linecap:round;stroke-linejoin:round;stroke-width:4px"/><path d="M197,224.64c.34-1.25.71-2.34,1.06-3.39,1.36-4.06,2.25-6.75-.39-12.68-2.22-5-3.37-8.88-1.78-11.8,1.4-2.58,4.45-3.33,6.62-3.67a13.16,13.16,0,0,1,6.84,1c6.11,2.44,12.55,9.27,12.24,18.5-.35,10.7-4.5,17.16-7.93,20.69-3,3-9.21,2.11-9.91,2l-.23,0a7.22,7.22,0,0,1-.8-.28h0C199,233.42,195.57,229.94,197,224.64Z" style="fill:#ffde8a;stroke:#004988;stroke-linecap:round;stroke-linejoin:round;stroke-width:4px"/></svg>