<svg xmlns="http://www.w3.org/2000/svg" viewBox="0 0 288 288"><title>Artboard 1 copy 15</title><polygon points="209.03 211.71 209.03 109.91 142.91 59.34 77.34 109.91 77.34 211.71 209.03 211.71" style="fill:#b0d5f1;stroke:#004988;stroke-linecap:round;stroke-linejoin:round;stroke-width:4px"/><path d="M171.13,225.13l-29.71,6.38c-8.28,1.38-16.48.89-24.75-.11a14.48,14.48,0,0,1-6.08-1.85c-3.79-2.38-5.8-8.49-3.41-13.2a12.2,12.2,0,0,1,6.87-5.6l14.61-4.94,34.52-11.92S197.05,180.33,215,182s45,11.91,45,11.91v44.6s-20.92-8-35.36-5.55-74.2,25.28-74.2,25.28-13.44,5.55-25.89,0S30.93,209.79,30.4,209.51c-4.26-2.25-4.77-9.69-2.41-13.86,5-8.82,15.88-3.93,22.65-1.74,7.89,2.56,15.9,4.64,23.84,7,12.56,3.68,24,7.64,36.6,11.32" style="fill:#fff;stroke:#004988;stroke-linecap:round;stroke-linejoin:round;stroke-width:4px"/><path d="M143.19,126.07s-.54-16.82-13.81-20.18-19.32,5-19.32,5-11.38,9.41-6.51,30.92,39.64,39.32,39.64,39.32,34.76-17.8,39.63-39.32-6.51-30.92-6.51-30.92-6-8.36-19.31-5S143.19,126.07,143.19,126.07Z" style="fill:#ffde8a;stroke:#004988;stroke-linecap:round;stroke-linejoin:round;stroke-width:4px"/><polyline points="175.31 55.8 175.31 36.65 202.59 36.65 202.59 75.85" style="fill:#b0d5f1;stroke:#004988;stroke-linecap:round;stroke-linejoin:round;stroke-width:4px"/><polygon points="229.69 125.19 142.91 59.34 142.91 59.34 56.12 125.19 56.12 97.07 142.91 31.23 142.91 31.23 229.69 97.07 229.69 125.19" style="fill:none;stroke:#004988;stroke-linecap:round;stroke-linejoin:round;stroke-width:4px"/></svg>