<svg xmlns="http://www.w3.org/2000/svg" viewBox="0 0 288 288"><title>Artboard 1 copy 9</title><rect x="93.61" y="106.1" width="103.71" height="153.45" style="fill:#b0d5f1;stroke:#004988;stroke-linecap:round;stroke-linejoin:round;stroke-width:4px"/><rect x="114.34" y="123.27" width="20.73" height="20.73" style="fill:#fff;stroke:#004988;stroke-linecap:round;stroke-linejoin:round;stroke-width:4px"/><rect x="197.32" y="144" width="45.15" height="115.54" style="fill:#27aae1;stroke:#004988;stroke-linecap:round;stroke-linejoin:round;stroke-width:4px"/><rect x="156.2" y="123.27" width="20.73" height="20.73" style="fill:#fff;stroke:#004988;stroke-linecap:round;stroke-linejoin:round;stroke-width:4px"/><rect x="117.96" y="50.43" width="55.49" height="55.49" style="fill:#ffde8a;stroke:#004988;stroke-linecap:round;stroke-linejoin:round;stroke-width:4px"/><rect x="114.34" y="161.57" width="20.73" height="20.73" style="fill:#fff;stroke:#004988;stroke-linecap:round;stroke-linejoin:round;stroke-width:4px"/><rect x="156.2" y="161.57" width="20.73" height="20.73" style="fill:#fff;stroke:#004988;stroke-linecap:round;stroke-linejoin:round;stroke-width:4px"/><rect x="124.7" y="203.24" width="41.35" height="56.31" style="fill:#fff;stroke:#004988;stroke-linecap:round;stroke-linejoin:round;stroke-width:4px"/><line x1="39.98" y1="259.54" x2="250.68" y2="259.54" style="fill:none;stroke:#004988;stroke-linecap:round;stroke-linejoin:round;stroke-width:4px"/><line x1="214.01" y1="165" x2="226.33" y2="165" style="fill:none;stroke:#004988;stroke-linecap:round;stroke-linejoin:round;stroke-width:4px"/><line x1="214.01" y1="189.28" x2="226.33" y2="189.28" style="fill:none;stroke:#004988;stroke-linecap:round;stroke-linejoin:round;stroke-width:4px"/><line x1="214.01" y1="213.56" x2="226.33" y2="213.56" style="fill:none;stroke:#004988;stroke-linecap:round;stroke-linejoin:round;stroke-width:4px"/><line x1="214.01" y1="237.84" x2="226.33" y2="237.84" style="fill:none;stroke:#004988;stroke-linecap:round;stroke-linejoin:round;stroke-width:4px"/><rect x="48.46" y="144" width="45.15" height="115.54" style="fill:#27aae1;stroke:#004988;stroke-linecap:round;stroke-linejoin:round;stroke-width:4px"/><line x1="65.15" y1="165" x2="77.47" y2="165" style="fill:none;stroke:#004988;stroke-linecap:round;stroke-linejoin:round;stroke-width:4px"/><line x1="65.15" y1="189.28" x2="77.47" y2="189.28" style="fill:none;stroke:#004988;stroke-linecap:round;stroke-linejoin:round;stroke-width:4px"/><line x1="65.15" y1="213.56" x2="77.47" y2="213.56" style="fill:none;stroke:#004988;stroke-linecap:round;stroke-linejoin:round;stroke-width:4px"/><line x1="65.15" y1="237.84" x2="77.47" y2="237.84" style="fill:none;stroke:#004988;stroke-linecap:round;stroke-linejoin:round;stroke-width:4px"/><line x1="145.67" y1="66.03" x2="145.67" y2="90.38" style="fill:none;stroke:#004988;stroke-linecap:round;stroke-linejoin:round;stroke-width:4px"/><line x1="133.49" y1="78.21" x2="157.85" y2="78.21" style="fill:none;stroke:#004988;stroke-linecap:round;stroke-linejoin:round;stroke-width:4px"/></svg>