<svg xmlns="http://www.w3.org/2000/svg" viewBox="0 0 288 288"><title>Artboard 1 copy 17</title><path d="M106.5,163.27l.27-29.1-27.21,29.1h-24L107.6,104s5.18-4.43,15.89-4.06,24.39,0,24.39,0,11.82,1.13,16.26,7.78,2.21,14.41,2.21,14.41l-2.42,6v67.14H140.58Z" style="fill:#ffde8a;stroke:#004988;stroke-linecap:round;stroke-linejoin:round;stroke-width:4px"/><circle cx="137.15" cy="77.58" r="22.34" style="fill:#fff;stroke:#004988;stroke-linecap:round;stroke-linejoin:round;stroke-width:4px"/><circle cx="238.97" cy="202.37" r="22.34" style="fill:#fff;stroke:#004988;stroke-linecap:round;stroke-linejoin:round;stroke-width:4px"/><path d="M106.5,163.27h-51s-10.13.55-10.13,10.66,11.92,9.84,11.92,9.84H92.92l15.38,22.59-74.41,5.72s-7.57,1.67-7.57,10.53,9.6,10,9.6,10h165s17-2.77,17-19.4-20-17.92-20-17.92H140.58Z" style="fill:#b0d5f1;stroke:#004988;stroke-linecap:round;stroke-linejoin:round;stroke-width:4px"/><path d="M193.32,212.82c-18.71,1.17-40.29.39-59,1.2-5.38.24-10,2.8-10,9.5,0,8.57,7.81,9.07,7.81,9.07" style="fill:none;stroke:#004988;stroke-linecap:round;stroke-linejoin:round;stroke-width:4px"/><path d="M144,129.6,132.27,153,104,163.82a8.46,8.46,0,0,0-3.51,11.06c3.23,7.65,12.38,4.5,12.38,4.5s22.81-8.12,29.62-11.45a20.84,20.84,0,0,0,9.45-10l12.64-31.42" style="fill:#ffde8a;stroke:#004988;stroke-linecap:round;stroke-linejoin:round;stroke-width:4px"/></svg>