<svg xmlns="http://www.w3.org/2000/svg" viewBox="0 0 288 288"><title>Artboard 1 copy 14</title><path d="M199.16,240.68c2.63-13,3.55-21.74,6.2-34.71,2.33-11.48,5.12-22.88,6.92-34.43,1.27-8.14,5.21-14.85,9.13-21.7.59-1,1.16-2.07,1.82-3.05a4.16,4.16,0,0,1,5.57-1.65c10.46,5.55,19.75,15.57,19.55,29-.18,11.89,0,37.43-.06,49.32" style="fill:none;stroke:#004988;stroke-linecap:round;stroke-linejoin:round;stroke-width:4px"/><path d="M238.87,233.06a9.76,9.76,0,0,0,9.27,9.39,9.52,9.52,0,0,0,9.69-9.73,9.48,9.48,0,0,0-19,.34Z" style="fill:#b0d5f1;stroke:#004988;stroke-linecap:round;stroke-linejoin:round;stroke-width:4px"/><line x1="248.35" y1="184.26" x2="209.96" y2="184.26" style="fill:#b0d5f1;stroke:#004988;stroke-linecap:round;stroke-linejoin:round;stroke-width:4px"/><path d="M126.72,241.49c-3.39-1.94-5-6.49-4.08-11,2.17-10.53,4.62-19.16,6.59-29.73.48-2.57-.34-5.44-.81-8.12-1.7-9.85-3.46-15.84-5.27-25.66-1.16-6.32,5.37-37.6,13.43-51.3,6.57-11.15,14.91-20.67,25.86-27.76,5.58-3.62,10.19-2.59,13.62,3.08,7,11.62,14.05,23.26,21.13,34.86a7.82,7.82,0,0,0,2.53,2.49c7.4,4.48,14.87,8.84,22.29,13.3a8.27,8.27,0,0,1,4,9.7,8.18,8.18,0,0,1-11.84,5.09c-9-5.1-17.8-10.43-26.63-15.77a8.94,8.94,0,0,1-2.71-2.92c-2.79-4.45-5.46-9-8.19-13.47-.35-.59-.75-1.14-1.23-1.86a88.76,88.76,0,0,0-9.39,18.5c-3.46,9.15-2.59,7.06-3.63,16.78a6.8,6.8,0,0,0,.36,2.79c3.94,11.17,7.89,18.49,11.9,29.63a34.34,34.34,0,0,1,2.3,15.74q-.76,11.19-1.46,22.39c-.25,4.19-.69,9.44-4.5,12-7.34,5-15.21.26-16.08-7.69-.78-7,1.08-14,1.77-20.92.42-4.22,1-6.64.3-10.83a45.13,45.13,0,0,0-3.78-11l-7.49-16.93S149,191.18,149,200.51c0,6.33-2.31,10.54-3.5,16.75-.89,4.7-1.16,9.54-2.64,14.09s-4.5,8.94-9,10.51A8.38,8.38,0,0,1,126.72,241.49Z" style="fill:#b0d5f1;stroke:#004988;stroke-linecap:round;stroke-linejoin:round;stroke-width:4px"/><path d="M194.52,99.57A19.48,19.48,0,1,1,214,80.09,19.35,19.35,0,0,1,194.52,99.57Z" style="fill:none;stroke:#004988;stroke-linecap:round;stroke-linejoin:round;stroke-width:4px"/><path d="M131.8,149c-3.5,2.21-9.89-.21-13.28-1.47-8.94-3.32-15.79-9.57-22.35-16.21-.78-.8-1.43-2.32-2.81-1.8-1.07.41-1,1.84-1.17,2.9-1.44,7.39-2.82,14.79-4.33,22.17a5.28,5.28,0,0,0,1.9,5.52,44.89,44.89,0,0,1,9.55,11.14c10.87,18.86,15.51,39.5,17.11,60.94.43,5.81-4,10.1-9.55,10.29-5.3.17-9.62-3.84-10.16-9.55a140.84,140.84,0,0,0-8.06-34.68c-2.84-7.83-6.26-15.38-11.65-21.86-.66-.79-1.29-2.05-2.55-1.73s-1.13,1.69-1.28,2.75c-.22,1.51-.4,3-.63,4.54-3.1,20.23-10.43,38.72-22.86,55.07-3.76,5-9.39,5.84-13.78,2.42s-5.08-9.12-1.41-13.93c8.81-11.58,11.95-24.57,15.21-38.7,1.75-7.59,1.49-15.45,2.84-23,3.91-21.81,4.85-25.78,9.24-47.5,1.11-5.47,9.45-28.22,21.69-27,9.79,1,13.48,7.62,15.82,13.43,1.26,3.15,2.22,6.38,3.95,9.32,6.16,10.47,15.78,16.68,26.38,21.74a9.46,9.46,0,0,1,3.48,13.93,4.81,4.81,0,0,1-1.17,1.21Z" style="fill:#27aae1;stroke:#004988;stroke-linecap:round;stroke-linejoin:round;stroke-width:4px"/><path d="M100.55,54.29c-10.64-.3-20,8.39-20.2,18.86-.28,11.44,8.34,20.74,19.46,21,10.53.24,19.91-8.55,20.23-19C120.4,63.66,112,54.6,100.55,54.29Z" style="fill:none;stroke:#004988;stroke-linecap:round;stroke-linejoin:round;stroke-width:4px"/></svg>