<svg xmlns="http://www.w3.org/2000/svg" viewBox="0 0 288 288"><title>Artboard 1 copy 13</title><polygon points="45.56 122.66 45.56 257.05 239.37 257.05 239.37 122.66 142.47 59.97 45.56 122.66" style="fill:#b0d5f1;stroke:#004988;stroke-linecap:round;stroke-linejoin:round;stroke-width:4px"/><path d="M126.36,111.39h32.37a17.78,17.78,0,0,1,17.78,17.78V197.7a0,0,0,0,1,0,0H108.58a0,0,0,0,1,0,0V129.17A17.78,17.78,0,0,1,126.36,111.39Z" style="fill:#ffde8a;stroke:#004988;stroke-linecap:round;stroke-linejoin:round;stroke-width:4px"/><path d="M168,154h2.93a8.86,8.86,0,0,1,8.84,8.84h0a8.86,8.86,0,0,1-8.84,8.84H168" style="fill:#fff;stroke:#004988;stroke-linecap:round;stroke-linejoin:round;stroke-width:4px"/><path d="M108.58,163.42s20.24,0,40.49-24.51c0,0,8.28,9.33,18.53,10.66" style="fill:none;stroke:#004988;stroke-linecap:round;stroke-linejoin:round;stroke-width:4px"/><polygon points="172.78 100.31 142.32 86.63 111.85 100.31 111.85 124.91 172.78 124.91 172.78 100.31" style="fill:#fff;stroke:#004988;stroke-linecap:round;stroke-linejoin:round;stroke-width:4px"/><path d="M147.52,197.7l52.57,21.76s18.18,7.73,18.18,28.14V257H66.37V247.6c0-20.41,18.17-28.14,18.17-28.14l52.58-21.76" style="fill:#27aae1;stroke:#004988;stroke-linecap:round;stroke-linejoin:round;stroke-width:4px"/><line x1="96.04" y1="244.39" x2="96.04" y2="257.07" style="fill:none;stroke:#004988;stroke-linecap:round;stroke-linejoin:round;stroke-width:4px"/><line x1="188.6" y1="244.39" x2="188.6" y2="257.07" style="fill:none;stroke:#004988;stroke-linecap:round;stroke-linejoin:round;stroke-width:4px"/><polyline points="156.12 193.29 156.12 209.48 142.46 225.25 142.18 225.25 128.51 209.48 128.51 193.29" style="fill:#fff;stroke:#004988;stroke-linecap:round;stroke-linejoin:round;stroke-width:4px"/><line x1="142.17" y1="234.27" x2="142.17" y2="225.25" style="fill:none;stroke:#004988;stroke-linecap:round;stroke-linejoin:round;stroke-width:4px"/><line x1="173.53" y1="240.35" x2="156.51" y2="240.35" style="fill:none;stroke:#004988;stroke-linecap:round;stroke-linejoin:round;stroke-width:4px"/><path d="M117.49,161.7v10.53a25,25,0,0,0,25,25.05h0a25.05,25.05,0,0,0,25.06-25.05V149.57c-10.25-1.33-18.53-10.66-18.53-10.66-11.81,14.3-23.62,20.26-31.41,22.74Z" style="fill:#fff;stroke:#004988;stroke-linecap:round;stroke-linejoin:round;stroke-width:4px"/><polygon points="257.81 134.59 142.47 59.97 142.47 59.97 27.13 134.59 27.13 110.52 142.47 35.91 142.47 35.91 257.81 110.52 257.81 134.59" style="fill:none;stroke:#004988;stroke-linecap:round;stroke-linejoin:round;stroke-width:4px"/><line x1="142.37" y1="100.21" x2="142.37" y2="113.33" style="fill:#fff;stroke:#004988;stroke-linecap:round;stroke-linejoin:round;stroke-width:4px"/><line x1="135.82" y1="106.77" x2="148.93" y2="106.77" style="fill:#fff;stroke:#004988;stroke-linecap:round;stroke-linejoin:round;stroke-width:4px"/></svg>