<svg xmlns="http://www.w3.org/2000/svg" viewBox="0 0 288 288"><title>Artboard 1 copy 10</title><path d="M171.07,110.52h20.22l1,28.7s1.4,24-21.21,24H118.91c-22.61,0-21.21-24-21.21-24l1-28.7h72.39Z" style="fill:#ffde8a;stroke:#004988;stroke-linecap:round;stroke-linejoin:round;stroke-width:4px"/><path d="M145.39,178.21l31.87-11.16,55.58,19.53s22.57,8.67,24.06,29.5,3,48.67,3,48.67H30.61s1.49-27.84,3-48.67,24-29.5,24-29.5l55.29-19.53,32.17,11.16Z" style="fill:#27aae1;stroke:#004988;stroke-linecap:round;stroke-linejoin:round;stroke-width:4px"/><polyline points="166.97 191.01 123.23 191.01 112.93 167.04 121.61 163.5 124.07 145.93 166.13 145.93 168.59 163.5 177.26 167.04 166.97 191.01 123.23 191.01" style="fill:#fff;stroke:#004988;stroke-linecap:round;stroke-linejoin:round;stroke-width:4px"/><path d="M196.35,203.5V169.77a25.35,25.35,0,0,0-25.28-25.28H119.58a25.36,25.36,0,0,0-25.29,25.28v14.44" style="fill:none;stroke:#004988;stroke-linecap:round;stroke-linejoin:round;stroke-width:4px"/><path d="M189.24,90.93h2a5.25,5.25,0,0,1,5.06,5.39v8.8a5.26,5.26,0,0,1-5.06,5.4h-5.7V90.93Z" style="fill:#fff;stroke:#004988;stroke-linecap:round;stroke-linejoin:round;stroke-width:4px"/><path d="M185.59,73.4v37.2c0,22.64-18.09,41.16-40.2,41.16h0c-22.12,0-40.21-18.52-40.21-41.16V55" style="fill:#fff;stroke:#004988;stroke-linecap:round;stroke-linejoin:round;stroke-width:4px"/><path d="M101.78,90.93h-2a5.25,5.25,0,0,0-5.06,5.39v8.8a5.26,5.26,0,0,0,5.06,5.4h5.45V90.93Z" style="fill:#fff;stroke:#004988;stroke-linecap:round;stroke-linejoin:round;stroke-width:4px"/><path d="M191.8,68.36c0-12.34-8.78-25.28-19.67-31.42-14.5-8.19-31.47-9.07-47-3.44-13.35,4.83-26.9,18.8-26.4,34.24L97.56,94.4s9-.58,10-8.76l8.18-22.31s22.49,27.6,42.82,25.61c10.17-1,14.18-3.61,16.86-5.45,4.34-3,5.71.49,5.71.49s4.71,13.39,11.65,10.42Z" style="fill:#ffde8a;stroke:#004988;stroke-linecap:round;stroke-linejoin:round;stroke-width:4px"/><line x1="224.12" y1="230.46" x2="224.12" y2="264.75" style="fill:none;stroke:#004988;stroke-linecap:round;stroke-linejoin:round;stroke-width:4px"/><line x1="66.67" y1="230.46" x2="66.67" y2="264.75" style="fill:none;stroke:#004988;stroke-linecap:round;stroke-linejoin:round;stroke-width:4px"/><path d="M100.55,231.47h7.74l-2.15-36.11a11.86,11.86,0,0,0-11.85-11.15h0a11.86,11.86,0,0,0-11.84,11.15l-2.16,36.11H88" style="fill:none;stroke:#004988;stroke-linecap:round;stroke-linejoin:round;stroke-width:4px"/><circle cx="196.75" cy="217.88" r="14.38" style="fill:#b0d5f1;stroke:#004988;stroke-linecap:round;stroke-linejoin:round;stroke-width:4px"/><polygon points="166.97 191.01 145.1 241.94 123.23 191.01 166.97 191.01" style="fill:#b0d5f1;stroke:#004988;stroke-linecap:round;stroke-linejoin:round;stroke-width:4px"/></svg>