<svg xmlns="http://www.w3.org/2000/svg" viewBox="0 0 288 288"><title>Artboard 1 copy 11</title><path d="M186.2,109.25h4.06a5.29,5.29,0,0,0,5.1-5.44V94.94a5.28,5.28,0,0,0-5.1-5.43H188.2" style="fill:#fff;stroke:#004988;stroke-linecap:round;stroke-linejoin:round;stroke-width:4px"/><path d="M102,109.25H98a5.3,5.3,0,0,1-5.1-5.44V94.94A5.29,5.29,0,0,1,98,89.51H100" style="fill:#fff;stroke:#004988;stroke-linecap:round;stroke-linejoin:round;stroke-width:4px"/><path d="M144,177.5,173.16,159l59,20.75s22.75,8.75,24.25,29.75,3,55.25,3,55.25H28.27s1.5-34.25,3-55.25,24.25-29.75,24.25-29.75l59-20.75,29.17,18.5Z" style="fill:#27aae1;stroke:#004988;stroke-linecap:round;stroke-linejoin:round;stroke-width:4px"/><path d="M195.36,203V169a25.56,25.56,0,0,0-25.49-25.49H118A25.56,25.56,0,0,0,92.47,169v14.56" style="fill:none;stroke:#004988;stroke-linecap:round;stroke-linejoin:round;stroke-width:4px"/><path d="M184.52,71.83v37.51c0,22.82-18.24,41.49-40.54,41.49h0c-22.29,0-40.53-18.67-40.53-41.49V71.83" style="fill:#fff;stroke:#004988;stroke-linecap:round;stroke-linejoin:round;stroke-width:4px"/><path d="M192.79,66.75c0-12.44-6.79-25.49-17.76-31.68C159,26,142.6,31.65,125.54,31.65S94.89,48.94,94.89,66.12L95.77,93s9.08-.58,10.08-8.83L107,71.29s29.8,18.21,50.3,16.21c10.25-1,14.29-3.64,17-5.5,4.37-3,5.75.5,5.75.5S184.77,96,191.77,93Z" style="fill:#ffde8a;stroke:#004988;stroke-linecap:round;stroke-linejoin:round;stroke-width:4px"/><polyline points="143.98 177.5 173.16 159 178.28 161.22 143.69 241.75 108.98 160.94 114.52 159 143.98 177.5" style="fill:#fff;stroke:#004988;stroke-linecap:round;stroke-linejoin:round;stroke-width:4px"/><polyline points="123.57 145.15 123.57 164.24 144.48 177.5 143.98 177.5 164.89 164.24 164.89 144.95" style="fill:none;stroke:#004988;stroke-linecap:round;stroke-linejoin:round;stroke-width:4px"/><line x1="64.02" y1="215.75" x2="64.02" y2="264.75" style="fill:none;stroke:#004988;stroke-linecap:round;stroke-linejoin:round;stroke-width:4px"/><line x1="143.69" y1="177.5" x2="122.49" y2="191.6" style="fill:none;stroke:#004988;stroke-linecap:round;stroke-linejoin:round;stroke-width:4px"/><line x1="223.37" y1="215.75" x2="223.37" y2="264.75" style="fill:none;stroke:#004988;stroke-linecap:round;stroke-linejoin:round;stroke-width:4px"/><line x1="143.69" y1="177.5" x2="164.89" y2="191.6" style="fill:none;stroke:#004988;stroke-linecap:round;stroke-linejoin:round;stroke-width:4px"/><polygon points="134.02 219.61 138.02 201.3 143.69 201.3 149.37 201.3 153.4 219.15 143.69 241.75 134.02 219.61" style="fill:#ffde8a;stroke:#004988;stroke-linecap:round;stroke-linejoin:round;stroke-width:4px"/><path d="M98.78,231.2h7.8l-2.16-36.41a12,12,0,0,0-12-11.24h0a12,12,0,0,0-12,11.24L78.36,231.2h7.8" style="fill:none;stroke:#004988;stroke-linecap:round;stroke-linejoin:round;stroke-width:4px"/><circle cx="195.77" cy="217.5" r="14.5" style="fill:#b0d5f1;stroke:#004988;stroke-linecap:round;stroke-linejoin:round;stroke-width:4px"/><polygon points="129.52 186.93 138.02 201.3 149.37 201.3 157.87 186.93 143.69 177.5 129.52 186.93" style="fill:#ffde8a;stroke:#004988;stroke-linecap:round;stroke-linejoin:round;stroke-width:4px"/></svg>