<svg xmlns="http://www.w3.org/2000/svg" viewBox="0 0 263.64 64"><title>Artboard 1</title><path d="M19.46,45.38q-3.23-3-3.44-8.56c0-.77,0-2,0-3.75s0-3.05,0-3.85q.23-5.46,3.46-8.51t9.09-3.05A15.61,15.61,0,0,1,35.19,19a10.43,10.43,0,0,1,4.37,3.56,9.28,9.28,0,0,1,1.65,5.08v.09a.69.69,0,0,1-.28.57.93.93,0,0,1-.62.24H36.17a1.09,1.09,0,0,1-.77-.24,1.72,1.72,0,0,1-.42-.83,6,6,0,0,0-2.22-3.73,7.24,7.24,0,0,0-4.19-1.09q-6.1,0-6.36,6.83c0,.77,0,1.95,0,3.54s0,2.8,0,3.63q.25,6.82,6.36,6.83a7.2,7.2,0,0,0,4.16-1.09A6,6,0,0,0,35,38.61a1.83,1.83,0,0,1,.42-.83,1.14,1.14,0,0,1,.77-.23h4.14a.92.92,0,0,1,.66.25.71.71,0,0,1,.24.64,9.26,9.26,0,0,1-1.65,5.08,10.45,10.45,0,0,1-4.37,3.57,15.61,15.61,0,0,1-6.62,1.3Q22.69,48.39,19.46,45.38Z" style="fill:#234a8e"/><path d="M48.23,47.51a7.27,7.27,0,0,1-2.86-2.36,5.8,5.8,0,0,1,1.3-8,14.19,14.19,0,0,1,6.45-2.43L59,33.88V33A3.77,3.77,0,0,0,58,30.21a4.09,4.09,0,0,0-3-.94,4.41,4.41,0,0,0-2.27.51,7,7,0,0,0-1.38,1l-.71.7A.64.64,0,0,1,50,32H46.71a1,1,0,0,1-.66-.25.93.93,0,0,1-.28-.69,4.54,4.54,0,0,1,1-2.41,8.14,8.14,0,0,1,3.1-2.35,11.84,11.84,0,0,1,5.16-1q5,0,7.34,2.26a8,8,0,0,1,2.31,5.94v13.4a1,1,0,0,1-.28.72,1,1,0,0,1-.75.3H60.16a1,1,0,0,1-.73-.3,1,1,0,0,1-.29-.72V45.27a7,7,0,0,1-2.65,2.24,9.22,9.22,0,0,1-4.27.88A9,9,0,0,1,48.23,47.51Zm9.28-4.76A6.08,6.08,0,0,0,59,38.32v-.86l-4.27.69q-4.91.76-4.91,3.28A2.38,2.38,0,0,0,51,43.54a4.79,4.79,0,0,0,2.71.75A5.09,5.09,0,0,0,57.51,42.75Z" style="fill:#234a8e"/><path d="M70.49,47.66a1,1,0,0,1-.3-.72V26.83a1,1,0,0,1,.3-.76,1,1,0,0,1,.72-.3h3.5a1,1,0,0,1,1.07,1.06v1.75a7.26,7.26,0,0,1,6.15-2.81h1.79a.95.95,0,0,1,1,1v3.12a1,1,0,0,1-.28.72,1,1,0,0,1-.75.3H80.35A4,4,0,0,0,76,35.24v11.7a1,1,0,0,1-1,1h-3.8A1,1,0,0,1,70.49,47.66Z" style="fill:#234a8e"/><path d="M89.8,45.66q-2.79-2.73-3-7.77l0-1.07c0-3.55.94-6.36,2.8-8.41a9.94,9.94,0,0,1,7.75-3.07q5.07,0,7.83,3.07a11.81,11.81,0,0,1,2.75,8.2v.9a1,1,0,0,1-.3.72,1,1,0,0,1-.76.3H92.69v.34a6.6,6.6,0,0,0,1.3,4,4,4,0,0,0,3.35,1.56,4.83,4.83,0,0,0,4-2,2.23,2.23,0,0,1,.59-.57,1.82,1.82,0,0,1,.73-.11h3.76a1.08,1.08,0,0,1,.66.21.75.75,0,0,1,.28.6A4,4,0,0,1,106.11,45a10.09,10.09,0,0,1-3.48,2.42,12.67,12.67,0,0,1-5.25,1A10.39,10.39,0,0,1,89.8,45.66ZM102,34.9v-.08a6.12,6.12,0,0,0-1.26-4,4.64,4.64,0,0,0-6.85,0,6.22,6.22,0,0,0-1.23,4v.08Z" style="fill:#234a8e"/><path d="M117.14,45.25a13.08,13.08,0,0,1-3-8.43c0-.77,0-2,0-3.75s0-3.05,0-3.85a13.12,13.12,0,0,1,3-8.43q2.77-3.13,8.33-3.13A13,13,0,0,1,131.78,19a9.48,9.48,0,0,1,3.74,3.5,9.71,9.71,0,0,1,1.34,4.34V27a.69.69,0,0,1-.25.56,1,1,0,0,1-.64.21h-.86c-.51,0-.82-.3-.94-.9a8.13,8.13,0,0,0-2.94-5.12,9.93,9.93,0,0,0-5.76-1.49,8.34,8.34,0,0,0-6.24,2.26c-1.48,1.51-2.27,3.83-2.39,7,0,.77,0,1.95,0,3.54s0,2.8,0,3.63c.12,3.13.91,5.45,2.39,7a8.34,8.34,0,0,0,6.24,2.26,9.86,9.86,0,0,0,5.76-1.5,8.08,8.08,0,0,0,2.94-5.12c.12-.6.43-.89.94-.89H136a1,1,0,0,1,.66.23.67.67,0,0,1,.23.62,9.67,9.67,0,0,1-1.34,4.33,9.35,9.35,0,0,1-3.74,3.5,12.89,12.89,0,0,1-6.31,1.39Q119.92,48.39,117.14,45.25Z" style="fill:#234a8e"/><path d="M142.88,47.71a.94.94,0,0,1-.26-.69V18.6a.94.94,0,0,1,.26-.69.92.92,0,0,1,.68-.25h.73a.92.92,0,0,1,.68.25.94.94,0,0,1,.26.69V28.71a8.86,8.86,0,0,1,2.92-2.52,9.21,9.21,0,0,1,4.25-.85A8,8,0,0,1,158.85,28a10.32,10.32,0,0,1,2.26,6.89V47a.94.94,0,0,1-.26.69.92.92,0,0,1-.68.25h-.73a.92.92,0,0,1-.68-.25.94.94,0,0,1-.26-.69V35.11a7.89,7.89,0,0,0-1.68-5.37A6.12,6.12,0,0,0,152,27.82a6.43,6.43,0,0,0-4.91,1.94,7.48,7.48,0,0,0-1.83,5.35V47a.94.94,0,0,1-.26.69.92.92,0,0,1-.68.25h-.73A.92.92,0,0,1,142.88,47.71Z" style="fill:#234a8e"/><path d="M197.3,20.94a.91.91,0,0,1-.25-.68V18.64a1,1,0,0,1,.25-.71.9.9,0,0,1,.69-.27h1.62a.94.94,0,0,1,1,1v1.62a.85.85,0,0,1-.28.68,1,1,0,0,1-.7.26H198A.94.94,0,0,1,197.3,20.94Zm.47,26.77a.93.93,0,0,1-.25-.69V26.71a.87.87,0,0,1,.94-.94h.72a.92.92,0,0,1,.68.25.9.9,0,0,1,.26.69V47a.9.9,0,0,1-.26.69.92.92,0,0,1-.68.25h-.72A.93.93,0,0,1,197.77,47.71Z" style="fill:#234a8e"/><path d="M208.57,45.81A10.63,10.63,0,0,1,206,38.57l0-1.71,0-1.7a10.63,10.63,0,0,1,2.56-7.24,9,9,0,0,1,6.87-2.58,10.58,10.58,0,0,1,4.81,1,7.3,7.3,0,0,1,3,2.56,6.63,6.63,0,0,1,1.07,3.23.75.75,0,0,1-.26.66,1,1,0,0,1-.68.28h-.6a.85.85,0,0,1-.62-.2,2.3,2.3,0,0,1-.4-.7,6.47,6.47,0,0,0-2.39-3.35,7,7,0,0,0-3.89-1,6.49,6.49,0,0,0-4.88,1.85q-1.81,1.86-1.95,5.7l0,1.49,0,1.5q.13,3.84,1.95,5.7a6.53,6.53,0,0,0,4.88,1.85,7,7,0,0,0,3.89-1,6.51,6.51,0,0,0,2.39-3.35,2.3,2.3,0,0,1,.4-.7.85.85,0,0,1,.62-.2h.6a1,1,0,0,1,.68.28.75.75,0,0,1,.26.66,6.63,6.63,0,0,1-1.07,3.23,7.3,7.3,0,0,1-3,2.56,10.71,10.71,0,0,1-4.81,1A9,9,0,0,1,208.57,45.81Z" style="fill:#234a8e"/><path d="M231.62,45.72a11.45,11.45,0,0,1-2.82-7.15l0-1.71,0-1.7A11.53,11.53,0,0,1,231.6,28a8.45,8.45,0,0,1,6.55-2.69,8.6,8.6,0,0,1,6.94,2.95c1.66,2,2.5,4.65,2.5,8.06V37a.91.91,0,0,1-.28.69,1,1,0,0,1-.71.25H231.41v.43a9.2,9.2,0,0,0,.92,3.73,7,7,0,0,0,2.32,2.78,5.93,5.93,0,0,0,3.5,1,7,7,0,0,0,5.94-2.77,2.79,2.79,0,0,1,.57-.64,1.32,1.32,0,0,1,.71-.13h.68a1,1,0,0,1,.64.21.71.71,0,0,1,.26.56,3.51,3.51,0,0,1-1.14,2.15,9.38,9.38,0,0,1-3.13,2.18,10.82,10.82,0,0,1-4.53.92A8.49,8.49,0,0,1,231.62,45.72ZM245,35.54v-.17A8,8,0,0,0,243.12,30a6.25,6.25,0,0,0-5-2.13A6.14,6.14,0,0,0,233.22,30a8.07,8.07,0,0,0-1.81,5.42v.17Z" style="fill:#234a8e"/><circle cx="179.05" cy="35.82" r="12.54" style="fill:#ffdd89;stroke:#004987;stroke-linecap:round;stroke-linejoin:round;stroke-width:1.73213636875153px"/><polygon points="172.4 34.36 170.78 35.98 176.69 41.89 189.8 28.78 188.13 27.11 176.64 38.6 172.4 34.36" style="fill:#004987"/></svg>